<mxfile host="app.diagrams.net" modified="2022-01-24T07:49:42.013Z" agent="5.0 (Macintosh; Intel Mac OS X 10_15_7) AppleWebKit/537.36 (KHTML, like Gecko) Chrome/97.0.4692.99 Safari/537.36" etag="5vPKLoXz-6rCQXXH9zpj" version="16.4.2" type="github">
  <diagram id="I5GW6R5hRMlU_vHdUiTQ" name="Page-1">
    <mxGraphModel dx="1186" dy="732" grid="1" gridSize="10" guides="1" tooltips="1" connect="1" arrows="1" fold="1" page="1" pageScale="1" pageWidth="827" pageHeight="1169" math="0" shadow="0">
      <root>
        <mxCell id="0" />
        <mxCell id="1" parent="0" />
        <mxCell id="t8CW0bvNHA3xZCFyP7Wd-2" style="edgeStyle=orthogonalEdgeStyle;rounded=0;orthogonalLoop=1;jettySize=auto;html=1;exitX=0.5;exitY=1;exitDx=0;exitDy=0;entryX=0.5;entryY=0;entryDx=0;entryDy=0;" parent="1" source="t8CW0bvNHA3xZCFyP7Wd-1" edge="1" target="g4S1AWgyKVHvtc6SjVlv-1">
          <mxGeometry relative="1" as="geometry">
            <mxPoint x="280" y="220" as="targetPoint" />
          </mxGeometry>
        </mxCell>
        <mxCell id="t8CW0bvNHA3xZCFyP7Wd-1" value="Thread 1" style="ellipse;whiteSpace=wrap;html=1;fillColor=#d5e8d4;strokeColor=#82b366;" parent="1" vertex="1">
          <mxGeometry x="220" y="100" width="120" height="60" as="geometry" />
        </mxCell>
        <mxCell id="g4S1AWgyKVHvtc6SjVlv-3" value="" style="edgeStyle=orthogonalEdgeStyle;curved=1;rounded=0;orthogonalLoop=1;jettySize=auto;html=1;" edge="1" parent="1" source="g4S1AWgyKVHvtc6SjVlv-1" target="g4S1AWgyKVHvtc6SjVlv-2">
          <mxGeometry relative="1" as="geometry" />
        </mxCell>
        <mxCell id="g4S1AWgyKVHvtc6SjVlv-1" value="写数据库&lt;br&gt;stock = 10" style="rounded=0;whiteSpace=wrap;html=1;fillColor=#f8cecc;strokeColor=#b85450;" vertex="1" parent="1">
          <mxGeometry x="227.5" y="190" width="105" height="50" as="geometry" />
        </mxCell>
        <mxCell id="g4S1AWgyKVHvtc6SjVlv-2" value="删除缓存" style="whiteSpace=wrap;html=1;rounded=0;fillColor=#f8cecc;strokeColor=#b85450;" vertex="1" parent="1">
          <mxGeometry x="227.5" y="270" width="105" height="50" as="geometry" />
        </mxCell>
        <mxCell id="g4S1AWgyKVHvtc6SjVlv-4" style="edgeStyle=orthogonalEdgeStyle;rounded=0;orthogonalLoop=1;jettySize=auto;html=1;exitX=0.5;exitY=1;exitDx=0;exitDy=0;entryX=0.5;entryY=0;entryDx=0;entryDy=0;" edge="1" parent="1" source="g4S1AWgyKVHvtc6SjVlv-5" target="g4S1AWgyKVHvtc6SjVlv-7">
          <mxGeometry relative="1" as="geometry">
            <mxPoint x="460" y="220" as="targetPoint" />
          </mxGeometry>
        </mxCell>
        <mxCell id="g4S1AWgyKVHvtc6SjVlv-5" value="Thread 2" style="ellipse;whiteSpace=wrap;html=1;fillColor=#d5e8d4;strokeColor=#82b366;" vertex="1" parent="1">
          <mxGeometry x="400" y="100" width="120" height="60" as="geometry" />
        </mxCell>
        <mxCell id="g4S1AWgyKVHvtc6SjVlv-6" value="" style="edgeStyle=orthogonalEdgeStyle;curved=1;rounded=0;orthogonalLoop=1;jettySize=auto;html=1;" edge="1" parent="1" source="g4S1AWgyKVHvtc6SjVlv-7" target="g4S1AWgyKVHvtc6SjVlv-8">
          <mxGeometry relative="1" as="geometry" />
        </mxCell>
        <mxCell id="g4S1AWgyKVHvtc6SjVlv-7" value="写数据库&lt;br&gt;stock = 6" style="rounded=0;whiteSpace=wrap;html=1;fillColor=#f8cecc;strokeColor=#b85450;" vertex="1" parent="1">
          <mxGeometry x="407.5" y="480" width="105" height="50" as="geometry" />
        </mxCell>
        <mxCell id="g4S1AWgyKVHvtc6SjVlv-8" value="删除缓存" style="whiteSpace=wrap;html=1;rounded=0;fillColor=#f8cecc;strokeColor=#b85450;" vertex="1" parent="1">
          <mxGeometry x="407.5" y="560" width="105" height="50" as="geometry" />
        </mxCell>
        <mxCell id="g4S1AWgyKVHvtc6SjVlv-9" style="edgeStyle=orthogonalEdgeStyle;rounded=0;orthogonalLoop=1;jettySize=auto;html=1;exitX=0.5;exitY=1;exitDx=0;exitDy=0;entryX=0.5;entryY=0;entryDx=0;entryDy=0;" edge="1" parent="1" source="g4S1AWgyKVHvtc6SjVlv-10" target="g4S1AWgyKVHvtc6SjVlv-14">
          <mxGeometry relative="1" as="geometry">
            <mxPoint x="640" y="260" as="targetPoint" />
          </mxGeometry>
        </mxCell>
        <mxCell id="g4S1AWgyKVHvtc6SjVlv-10" value="Thread 3" style="ellipse;whiteSpace=wrap;html=1;fillColor=#d5e8d4;strokeColor=#82b366;" vertex="1" parent="1">
          <mxGeometry x="580" y="100" width="120" height="60" as="geometry" />
        </mxCell>
        <mxCell id="g4S1AWgyKVHvtc6SjVlv-11" value="" style="edgeStyle=orthogonalEdgeStyle;curved=1;rounded=0;orthogonalLoop=1;jettySize=auto;html=1;" edge="1" parent="1" source="g4S1AWgyKVHvtc6SjVlv-12" target="g4S1AWgyKVHvtc6SjVlv-13">
          <mxGeometry relative="1" as="geometry" />
        </mxCell>
        <mxCell id="g4S1AWgyKVHvtc6SjVlv-12" value="查数据库&lt;br&gt;stock = 10" style="rounded=0;whiteSpace=wrap;html=1;fillColor=#dae8fc;strokeColor=#6c8ebf;" vertex="1" parent="1">
          <mxGeometry x="587.5" y="400" width="105" height="50" as="geometry" />
        </mxCell>
        <mxCell id="g4S1AWgyKVHvtc6SjVlv-13" value="更新缓存&lt;br&gt;stock = 10" style="whiteSpace=wrap;html=1;rounded=0;fillColor=#f8cecc;strokeColor=#b85450;" vertex="1" parent="1">
          <mxGeometry x="587.5" y="630" width="105" height="50" as="geometry" />
        </mxCell>
        <mxCell id="g4S1AWgyKVHvtc6SjVlv-15" style="edgeStyle=orthogonalEdgeStyle;curved=1;rounded=0;orthogonalLoop=1;jettySize=auto;html=1;exitX=0.5;exitY=1;exitDx=0;exitDy=0;" edge="1" parent="1" source="g4S1AWgyKVHvtc6SjVlv-14" target="g4S1AWgyKVHvtc6SjVlv-12">
          <mxGeometry relative="1" as="geometry" />
        </mxCell>
        <mxCell id="g4S1AWgyKVHvtc6SjVlv-14" value="查缓存&lt;br&gt;stock = null" style="rounded=0;whiteSpace=wrap;html=1;fillColor=#dae8fc;strokeColor=#6c8ebf;" vertex="1" parent="1">
          <mxGeometry x="587.5" y="320" width="105" height="50" as="geometry" />
        </mxCell>
        <mxCell id="g4S1AWgyKVHvtc6SjVlv-16" value="" style="endArrow=classic;html=1;rounded=0;curved=1;exitX=0.5;exitY=1;exitDx=0;exitDy=0;" edge="1" parent="1" source="g4S1AWgyKVHvtc6SjVlv-18">
          <mxGeometry width="50" height="50" relative="1" as="geometry">
            <mxPoint x="120" y="120" as="sourcePoint" />
            <mxPoint x="120" y="680" as="targetPoint" />
          </mxGeometry>
        </mxCell>
        <mxCell id="g4S1AWgyKVHvtc6SjVlv-17" value="执行时间轴" style="edgeLabel;html=1;align=center;verticalAlign=middle;resizable=0;points=[];" vertex="1" connectable="0" parent="g4S1AWgyKVHvtc6SjVlv-16">
          <mxGeometry x="-0.2321" y="1" relative="1" as="geometry">
            <mxPoint y="35" as="offset" />
          </mxGeometry>
        </mxCell>
        <mxCell id="g4S1AWgyKVHvtc6SjVlv-18" value="读写并发不一致" style="text;html=1;strokeColor=none;fillColor=none;align=center;verticalAlign=middle;whiteSpace=wrap;rounded=0;fontStyle=1" vertex="1" parent="1">
          <mxGeometry x="70" y="110" width="100" height="30" as="geometry" />
        </mxCell>
        <mxCell id="g4S1AWgyKVHvtc6SjVlv-19" style="edgeStyle=orthogonalEdgeStyle;rounded=0;orthogonalLoop=1;jettySize=auto;html=1;exitX=0.5;exitY=1;exitDx=0;exitDy=0;entryX=0.5;entryY=0;entryDx=0;entryDy=0;" edge="1" parent="1" source="g4S1AWgyKVHvtc6SjVlv-20" target="g4S1AWgyKVHvtc6SjVlv-22">
          <mxGeometry relative="1" as="geometry">
            <mxPoint x="380" y="920" as="targetPoint" />
          </mxGeometry>
        </mxCell>
        <mxCell id="g4S1AWgyKVHvtc6SjVlv-20" value="Thread 1" style="ellipse;whiteSpace=wrap;html=1;fillColor=#d5e8d4;strokeColor=#82b366;" vertex="1" parent="1">
          <mxGeometry x="320" y="800" width="120" height="60" as="geometry" />
        </mxCell>
        <mxCell id="g4S1AWgyKVHvtc6SjVlv-21" value="" style="edgeStyle=orthogonalEdgeStyle;curved=1;rounded=0;orthogonalLoop=1;jettySize=auto;html=1;" edge="1" parent="1" source="g4S1AWgyKVHvtc6SjVlv-22" target="g4S1AWgyKVHvtc6SjVlv-23">
          <mxGeometry relative="1" as="geometry" />
        </mxCell>
        <mxCell id="g4S1AWgyKVHvtc6SjVlv-22" value="写数据库&lt;br&gt;stock = 10" style="rounded=0;whiteSpace=wrap;html=1;fillColor=#f8cecc;strokeColor=#b85450;" vertex="1" parent="1">
          <mxGeometry x="327.5" y="940" width="105" height="50" as="geometry" />
        </mxCell>
        <mxCell id="g4S1AWgyKVHvtc6SjVlv-23" value="更新缓存" style="whiteSpace=wrap;html=1;rounded=0;fillColor=#f8cecc;strokeColor=#b85450;" vertex="1" parent="1">
          <mxGeometry x="327.5" y="1260" width="105" height="50" as="geometry" />
        </mxCell>
        <mxCell id="g4S1AWgyKVHvtc6SjVlv-24" style="edgeStyle=orthogonalEdgeStyle;rounded=0;orthogonalLoop=1;jettySize=auto;html=1;exitX=0.5;exitY=1;exitDx=0;exitDy=0;entryX=0.5;entryY=0;entryDx=0;entryDy=0;" edge="1" parent="1" source="g4S1AWgyKVHvtc6SjVlv-25" target="g4S1AWgyKVHvtc6SjVlv-27">
          <mxGeometry relative="1" as="geometry">
            <mxPoint x="560" y="920" as="targetPoint" />
          </mxGeometry>
        </mxCell>
        <mxCell id="g4S1AWgyKVHvtc6SjVlv-25" value="Thread 2" style="ellipse;whiteSpace=wrap;html=1;fillColor=#d5e8d4;strokeColor=#82b366;" vertex="1" parent="1">
          <mxGeometry x="500" y="800" width="120" height="60" as="geometry" />
        </mxCell>
        <mxCell id="g4S1AWgyKVHvtc6SjVlv-26" value="" style="edgeStyle=orthogonalEdgeStyle;curved=1;rounded=0;orthogonalLoop=1;jettySize=auto;html=1;" edge="1" parent="1" source="g4S1AWgyKVHvtc6SjVlv-27" target="g4S1AWgyKVHvtc6SjVlv-28">
          <mxGeometry relative="1" as="geometry" />
        </mxCell>
        <mxCell id="g4S1AWgyKVHvtc6SjVlv-27" value="写数据库&lt;br&gt;stock = 6" style="rounded=0;whiteSpace=wrap;html=1;fillColor=#f8cecc;strokeColor=#b85450;" vertex="1" parent="1">
          <mxGeometry x="507.5" y="1020" width="105" height="50" as="geometry" />
        </mxCell>
        <mxCell id="g4S1AWgyKVHvtc6SjVlv-28" value="更新缓存" style="whiteSpace=wrap;html=1;rounded=0;fillColor=#f8cecc;strokeColor=#b85450;" vertex="1" parent="1">
          <mxGeometry x="507.5" y="1150" width="105" height="50" as="geometry" />
        </mxCell>
        <mxCell id="g4S1AWgyKVHvtc6SjVlv-29" value="" style="endArrow=classic;html=1;rounded=0;curved=1;exitX=0.5;exitY=1;exitDx=0;exitDy=0;" edge="1" parent="1" source="g4S1AWgyKVHvtc6SjVlv-31">
          <mxGeometry width="50" height="50" relative="1" as="geometry">
            <mxPoint x="220" y="820" as="sourcePoint" />
            <mxPoint x="220" y="1300" as="targetPoint" />
          </mxGeometry>
        </mxCell>
        <mxCell id="g4S1AWgyKVHvtc6SjVlv-30" value="执行时间轴" style="edgeLabel;html=1;align=center;verticalAlign=middle;resizable=0;points=[];" vertex="1" connectable="0" parent="g4S1AWgyKVHvtc6SjVlv-29">
          <mxGeometry x="-0.2321" y="1" relative="1" as="geometry">
            <mxPoint y="35" as="offset" />
          </mxGeometry>
        </mxCell>
        <mxCell id="g4S1AWgyKVHvtc6SjVlv-31" value="双写不一致" style="text;html=1;strokeColor=none;fillColor=none;align=center;verticalAlign=middle;whiteSpace=wrap;rounded=0;fontStyle=1" vertex="1" parent="1">
          <mxGeometry x="170" y="810" width="100" height="30" as="geometry" />
        </mxCell>
      </root>
    </mxGraphModel>
  </diagram>
</mxfile>
